<svg xmlns="http://www.w3.org/2000/svg" xmlns:xlink="http://www.w3.org/1999/xlink" width="600" zoomAndPan="magnify" viewBox="0 0 450 104.249996" height="139" preserveAspectRatio="xMidYMid meet" version="1.0"><defs><g/></defs><g fill="#c60539" fill-opacity="1"><g transform="translate(174.558485, 55.867973)"><g><path d="M 5.09375 23.171875 C 4.882812 23.171875 4.628906 23.0625 4.328125 22.84375 C 3.847656 22.5 3.628906 22.132812 3.671875 21.75 C 3.722656 21.363281 3.875 20.910156 4.125 20.390625 C 4.257812 20.085938 4.347656 19.875 4.390625 19.75 C 5.160156 17.601562 6.0625 15.570312 7.09375 13.65625 C 8.132812 11.738281 9.101562 10.046875 10 8.578125 C 11.507812 6.085938 11.8125 3.015625 10.90625 -0.640625 C 10.132812 -3.609375 8.367188 -5.957031 5.609375 -7.6875 C 5.484375 -7.726562 5.289062 -7.832031 5.03125 -8 C 4.5625 -8.257812 4.1875 -8.492188 3.90625 -8.703125 C 3.625 -8.921875 3.484375 -9.226562 3.484375 -9.625 C 3.484375 -10.09375 3.644531 -10.398438 3.96875 -10.546875 C 4.289062 -10.703125 4.6875 -10.84375 5.15625 -10.96875 L 5.546875 -11.03125 C 10.191406 -12.28125 14.601562 -12.90625 18.78125 -12.90625 C 19.039062 -12.90625 19.382812 -12.90625 19.8125 -12.90625 C 20.25 -12.90625 20.46875 -12.90625 20.46875 -12.90625 C 22.269531 -12.90625 23.707031 -13.679688 24.78125 -15.234375 C 25.6875 -16.566406 26.578125 -17.898438 27.453125 -19.234375 C 28.335938 -20.566406 29.210938 -21.898438 30.078125 -23.234375 C 32.785156 -27.367188 35.5625 -31.507812 38.40625 -35.65625 C 41.25 -39.8125 44.304688 -43.785156 47.578125 -47.578125 C 48.171875 -48.265625 48.789062 -48.914062 49.4375 -49.53125 C 50.082031 -50.15625 50.835938 -50.640625 51.703125 -50.984375 C 52.128906 -51.203125 52.515625 -51.3125 52.859375 -51.3125 C 53.804688 -51.3125 54.519531 -50.625 55 -49.25 C 55.425781 -47.957031 55.59375 -46.738281 55.5 -45.59375 C 55.414062 -44.457031 55.289062 -43.332031 55.125 -42.21875 C 54.175781 -36.582031 52.894531 -31.113281 51.28125 -25.8125 C 49.664062 -20.519531 48.019531 -15.316406 46.34375 -10.203125 C 45.914062 -9.035156 45.519531 -7.878906 45.15625 -6.734375 C 44.789062 -5.597656 44.410156 -4.429688 44.015625 -3.234375 C 43.023438 -0.265625 42.003906 2.703125 40.953125 5.671875 C 39.898438 8.648438 38.835938 11.644531 37.765625 14.65625 C 37.722656 14.78125 37.65625 14.972656 37.5625 15.234375 C 37.519531 15.492188 37.441406 15.75 37.328125 16 C 37.222656 16.257812 37.066406 16.390625 36.859375 16.390625 C 36.679688 16.390625 36.460938 16.328125 36.203125 16.203125 C 35.992188 16.066406 35.847656 15.9375 35.765625 15.8125 C 35.671875 15.644531 35.664062 15.441406 35.75 15.203125 C 35.84375 14.960938 35.929688 14.757812 36.015625 14.59375 C 36.097656 14.289062 36.160156 14.070312 36.203125 13.9375 C 37.285156 9.46875 38.523438 5.035156 39.921875 0.640625 C 41.316406 -3.742188 42.726562 -8.046875 44.15625 -12.265625 C 45.144531 -15.109375 46.109375 -17.976562 47.046875 -20.875 C 47.992188 -23.78125 48.898438 -26.695312 49.765625 -29.625 C 49.941406 -30.1875 50.210938 -31.113281 50.578125 -32.40625 C 50.941406 -33.695312 51.328125 -35.160156 51.734375 -36.796875 C 52.140625 -38.429688 52.492188 -40.066406 52.796875 -41.703125 C 53.097656 -43.335938 53.300781 -44.765625 53.40625 -45.984375 C 53.519531 -47.210938 53.445312 -48.066406 53.1875 -48.546875 C 53.0625 -48.710938 52.910156 -48.835938 52.734375 -48.921875 L 52.671875 -48.921875 L 52.34375 -48.984375 C 52.132812 -48.984375 51.941406 -48.929688 51.765625 -48.828125 C 51.597656 -48.722656 51.488281 -48.648438 51.4375 -48.609375 C 50.925781 -48.210938 50.460938 -47.78125 50.046875 -47.3125 C 49.640625 -46.84375 49.242188 -46.367188 48.859375 -45.890625 C 48.648438 -45.628906 48.4375 -45.367188 48.21875 -45.109375 C 48 -44.859375 47.785156 -44.601562 47.578125 -44.34375 C 46.066406 -42.664062 44.535156 -40.859375 42.984375 -38.921875 C 41.484375 -36.941406 40.039062 -34.953125 38.65625 -32.953125 C 37.28125 -30.953125 35.992188 -29.046875 34.796875 -27.234375 L 33.3125 -24.921875 C 32.0625 -23.023438 30.800781 -21.117188 29.53125 -19.203125 C 28.257812 -17.285156 26.957031 -15.40625 25.625 -13.5625 L 25.359375 -13.171875 L 25.953125 -13.171875 C 28.316406 -13.035156 30.519531 -12.867188 32.5625 -12.671875 C 34.601562 -12.484375 36.632812 -12.15625 38.65625 -11.6875 C 38.75 -11.644531 38.859375 -11.625 38.984375 -11.625 C 39.117188 -11.625 39.226562 -11.625 39.3125 -11.625 C 39.519531 -11.570312 39.707031 -11.535156 39.875 -11.515625 C 40.050781 -11.492188 40.207031 -11.421875 40.34375 -11.296875 C 40.46875 -11.210938 40.550781 -11.019531 40.59375 -10.71875 C 40.644531 -10.28125 40.429688 -10.0625 39.953125 -10.0625 C 39.828125 -10.0625 39.6875 -10.070312 39.53125 -10.09375 C 39.382812 -10.125 39.222656 -10.160156 39.046875 -10.203125 L 38.796875 -10.265625 C 38.453125 -10.347656 38.082031 -10.421875 37.6875 -10.484375 C 37.300781 -10.546875 36.914062 -10.644531 36.53125 -10.78125 C 36.019531 -10.863281 35.492188 -10.96875 34.953125 -11.09375 C 34.410156 -11.226562 33.882812 -11.316406 33.375 -11.359375 C 32.082031 -11.578125 30.921875 -11.6875 29.890625 -11.6875 C 25.753906 -11.6875 22.828125 -9.960938 21.109375 -6.515625 C 20.378906 -5.054688 19.625 -3.625 18.84375 -2.21875 C 18.070312 -0.820312 17.273438 0.5625 16.453125 1.9375 C 15.035156 4.382812 13.640625 6.898438 12.265625 9.484375 C 10.890625 12.066406 9.707031 14.78125 8.71875 17.625 C 8.5 18.3125 8.195312 18.96875 7.8125 19.59375 C 7.425781 20.21875 7.035156 20.804688 6.640625 21.359375 C 6.554688 21.492188 6.453125 21.691406 6.328125 21.953125 C 6.191406 22.242188 6.023438 22.519531 5.828125 22.78125 C 5.640625 23.039062 5.394531 23.171875 5.09375 23.171875 Z M 21.5625 -11.421875 C 20.570312 -11.503906 19.601562 -11.546875 18.65625 -11.546875 C 16.539062 -11.546875 14.535156 -11.382812 12.640625 -11.0625 C 10.753906 -10.738281 8.90625 -10.382812 7.09375 -10 C 6.707031 -9.914062 6.445312 -9.804688 6.3125 -9.671875 C 6.1875 -9.546875 6.125 -9.421875 6.125 -9.296875 C 6.125 -9.160156 6.175781 -8.984375 6.28125 -8.765625 C 6.394531 -8.554688 6.644531 -8.300781 7.03125 -8 C 10.34375 -5.414062 12.257812 -1.867188 12.78125 2.640625 L 12.84375 3.484375 L 22.078125 -11.359375 Z M 21.5625 -11.421875 "/></g></g></g><g fill="#ffffff" fill-opacity="1"><g transform="translate(211.793055, 68.248656)"><g><path d="M 36.46875 33.359375 C 36.34375 33.421875 36.21875 33.453125 36.09375 33.453125 C 35.820312 33.453125 35.550781 33.347656 35.28125 33.140625 C 34.726562 32.742188 34.429688 32.316406 34.390625 31.859375 C 34.347656 31.398438 34.351562 30.957031 34.40625 30.53125 L 34.40625 30.3125 C 34.6875 28.125 35.09375 25.992188 35.625 23.921875 C 36.15625 21.859375 36.707031 19.828125 37.28125 17.828125 L 37.375 17.453125 C 37.894531 15.660156 38.613281 13.488281 39.53125 10.9375 C 40.457031 8.382812 41.503906 5.617188 42.671875 2.640625 C 43.847656 -0.335938 45.066406 -3.375 46.328125 -6.46875 C 47.585938 -9.570312 48.832031 -12.597656 50.0625 -15.546875 C 51.289062 -18.492188 52.414062 -21.203125 53.4375 -23.671875 C 54.457031 -26.148438 55.285156 -28.226562 55.921875 -29.90625 L 57.46875 -33.78125 L 57.84375 -34.78125 C 57.988281 -35.144531 58.132812 -35.515625 58.28125 -35.890625 C 58.4375 -36.273438 58.578125 -36.664062 58.703125 -37.0625 C 58.972656 -37.90625 59.171875 -38.722656 59.296875 -39.515625 C 59.296875 -39.640625 59.296875 -39.820312 59.296875 -40.0625 C 59.296875 -40.300781 59.175781 -40.484375 58.9375 -40.609375 C 58.84375 -40.640625 58.734375 -40.65625 58.609375 -40.65625 C 58.335938 -40.65625 58.070312 -40.570312 57.8125 -40.40625 C 57.550781 -40.238281 57.316406 -40.078125 57.109375 -39.921875 C 56.953125 -39.804688 56.847656 -39.734375 56.796875 -39.703125 C 56.242188 -39.335938 55.703125 -38.945312 55.171875 -38.53125 C 54.640625 -38.125 54.113281 -37.707031 53.59375 -37.28125 L 53.234375 -36.96875 C 52.441406 -36.269531 51.671875 -35.539062 50.921875 -34.78125 C 50.179688 -34.019531 49.460938 -33.257812 48.765625 -32.5 L 48.625 -32.40625 C 48.144531 -31.851562 47.460938 -31.097656 46.578125 -30.140625 C 45.703125 -29.191406 44.703125 -28.113281 43.578125 -26.90625 C 42.453125 -25.707031 41.296875 -24.460938 40.109375 -23.171875 C 38.921875 -21.878906 37.78125 -20.632812 36.6875 -19.4375 C 35.59375 -18.238281 34.601562 -17.160156 33.71875 -16.203125 C 32.84375 -15.242188 32.175781 -14.507812 31.71875 -14 C 30.71875 -12.875 29.710938 -11.75 28.703125 -10.625 C 27.703125 -9.5 26.703125 -8.375 25.703125 -7.25 C 25.335938 -6.851562 24.941406 -6.472656 24.515625 -6.109375 C 24.097656 -5.742188 23.691406 -5.394531 23.296875 -5.0625 C 22.929688 -4.789062 22.609375 -4.546875 22.328125 -4.328125 C 21.960938 -3.992188 21.582031 -3.828125 21.1875 -3.828125 C 20.945312 -3.828125 20.691406 -3.90625 20.421875 -4.0625 C 19.753906 -4.476562 19.460938 -5.207031 19.546875 -6.25 C 19.671875 -7.125 19.800781 -8.007812 19.9375 -8.90625 C 20.070312 -9.800781 20.21875 -10.675781 20.375 -11.53125 L 20.5625 -12.390625 C 20.613281 -12.847656 20.6875 -13.289062 20.78125 -13.71875 C 20.875 -14.144531 20.96875 -14.585938 21.0625 -15.046875 C 21.269531 -16.191406 21.476562 -17.363281 21.6875 -18.5625 C 21.90625 -19.769531 22.046875 -20.992188 22.109375 -22.234375 C 22.140625 -22.941406 22.09375 -23.597656 21.96875 -24.203125 C 21.90625 -24.410156 21.847656 -24.597656 21.796875 -24.765625 C 21.753906 -24.929688 21.707031 -25.109375 21.65625 -25.296875 C 21.5 -25.566406 21.285156 -25.703125 21.015625 -25.703125 C 20.710938 -25.703125 20.390625 -25.566406 20.046875 -25.296875 C 19.710938 -25.023438 19.382812 -24.722656 19.0625 -24.390625 C 18.75 -24.054688 18.519531 -23.78125 18.375 -23.5625 C 16.300781 -21.007812 14.484375 -18.265625 12.921875 -15.328125 C 11.359375 -12.398438 9.878906 -9.460938 8.484375 -6.515625 C 8.359375 -6.273438 8.164062 -5.894531 7.90625 -5.375 C 7.644531 -4.863281 7.378906 -4.332031 7.109375 -3.78125 C 6.835938 -3.238281 6.609375 -2.769531 6.421875 -2.375 C 6.242188 -1.976562 6.15625 -1.78125 6.15625 -1.78125 C 5.757812 -0.988281 5.367188 -0.207031 4.984375 0.5625 C 4.609375 1.34375 4.222656 2.128906 3.828125 2.921875 C 3.765625 2.984375 3.722656 3.039062 3.703125 3.09375 C 3.691406 3.15625 3.671875 3.21875 3.640625 3.28125 C 3.554688 3.46875 3.46875 3.648438 3.375 3.828125 C 3.28125 4.015625 3.160156 4.148438 3.015625 4.234375 C 2.921875 4.296875 2.828125 4.328125 2.734375 4.328125 C 2.554688 4.328125 2.40625 4.207031 2.28125 3.96875 C 2.1875 3.78125 2.160156 3.578125 2.203125 3.359375 C 2.253906 3.148438 2.328125 2.957031 2.421875 2.78125 C 2.472656 2.65625 2.515625 2.5625 2.546875 2.5 C 3.460938 -0.132812 4.5 -2.875 5.65625 -5.71875 C 6.8125 -8.5625 8.128906 -11.394531 9.609375 -14.21875 C 11.097656 -17.039062 12.816406 -19.773438 14.765625 -22.421875 C 16.078125 -24.210938 17.382812 -25.566406 18.6875 -26.484375 C 19.351562 -26.910156 19.960938 -27.125 20.515625 -27.125 C 20.929688 -27.125 21.335938 -27.015625 21.734375 -26.796875 C 22.347656 -26.460938 22.710938 -26.03125 22.828125 -25.5 C 22.953125 -24.96875 23.015625 -24.398438 23.015625 -23.796875 C 23.015625 -22.640625 22.945312 -21.53125 22.8125 -20.46875 C 22.675781 -19.40625 22.546875 -18.414062 22.421875 -17.5 C 22.242188 -16.53125 22.0625 -15.566406 21.875 -14.609375 C 21.695312 -13.648438 21.515625 -12.6875 21.328125 -11.71875 C 21.203125 -11.195312 21.085938 -10.6875 20.984375 -10.1875 C 20.878906 -9.6875 20.78125 -9.175781 20.6875 -8.65625 L 20.640625 -8.4375 C 20.609375 -8.1875 20.570312 -7.941406 20.53125 -7.703125 C 20.488281 -7.460938 20.46875 -7.21875 20.46875 -6.96875 C 20.4375 -6.570312 20.425781 -6.207031 20.4375 -5.875 C 20.457031 -5.539062 20.570312 -5.300781 20.78125 -5.15625 L 20.828125 -5.109375 L 21.0625 -5.015625 C 21.238281 -5.015625 21.425781 -5.082031 21.625 -5.21875 C 21.820312 -5.351562 22.015625 -5.5 22.203125 -5.65625 L 22.328125 -5.78125 C 23.148438 -6.394531 23.988281 -7.15625 24.84375 -8.0625 C 25.320312 -8.613281 25.789062 -9.160156 26.25 -9.703125 C 26.707031 -10.253906 27.148438 -10.816406 27.578125 -11.390625 C 27.847656 -11.691406 28.101562 -12.003906 28.34375 -12.328125 C 28.59375 -12.648438 28.851562 -12.960938 29.125 -13.265625 C 30.007812 -14.328125 31.085938 -15.585938 32.359375 -17.046875 C 33.640625 -18.503906 35.019531 -20.0625 36.5 -21.71875 C 37.988281 -23.375 39.523438 -25.050781 41.109375 -26.75 C 42.691406 -28.457031 44.242188 -30.097656 45.765625 -31.671875 C 47.285156 -33.253906 48.710938 -34.695312 50.046875 -36 C 51.378906 -37.3125 52.535156 -38.378906 53.515625 -39.203125 C 54.148438 -39.742188 54.804688 -40.265625 55.484375 -40.765625 C 56.171875 -41.265625 56.925781 -41.679688 57.75 -42.015625 C 58.113281 -42.171875 58.429688 -42.25 58.703125 -42.25 C 59.160156 -42.25 59.585938 -42.082031 59.984375 -41.75 C 60.679688 -41.195312 61 -40.453125 60.9375 -39.515625 C 60.875 -38.609375 60.726562 -37.757812 60.5 -36.96875 C 60.269531 -36.175781 60.035156 -35.460938 59.796875 -34.828125 C 59.097656 -32.910156 58.367188 -31 57.609375 -29.09375 C 56.847656 -27.195312 56.101562 -25.320312 55.375 -23.46875 C 54.914062 -22.34375 54.285156 -20.835938 53.484375 -18.953125 C 52.679688 -17.078125 51.769531 -14.957031 50.75 -12.59375 C 49.726562 -10.238281 48.6875 -7.800781 47.625 -5.28125 C 46.5625 -2.757812 45.535156 -0.304688 44.546875 2.078125 C 43.566406 4.460938 42.703125 6.617188 41.953125 8.546875 C 41.210938 10.472656 40.660156 12.03125 40.296875 13.21875 L 39.65625 15.21875 C 38.957031 17.59375 38.265625 19.992188 37.578125 22.421875 C 36.890625 24.859375 36.363281 27.351562 36 29.90625 C 35.976562 29.988281 35.957031 30.066406 35.9375 30.140625 C 35.925781 30.222656 35.90625 30.3125 35.875 30.40625 C 35.78125 30.738281 35.738281 31.109375 35.75 31.515625 C 35.769531 31.921875 36.050781 32.351562 36.59375 32.8125 C 36.71875 32.875 36.78125 32.953125 36.78125 33.046875 C 36.78125 33.191406 36.675781 33.296875 36.46875 33.359375 Z M 36.46875 33.359375 "/></g></g></g></svg>