<?xml version="1.0" standalone="no"?>
<!DOCTYPE svg PUBLIC "-//W3C//DTD SVG 20010904//EN"
 "http://www.w3.org/TR/2001/REC-SVG-20010904/DTD/svg10.dtd">
<svg version="1.0" xmlns="http://www.w3.org/2000/svg"
 width="300.000000pt" height="252.000000pt" viewBox="0 0 300.000000 252.000000"
 preserveAspectRatio="xMidYMid meet">
<metadata>
Created by potrace 1.10, written by Peter Selinger 2001-2011
</metadata>
<g transform="translate(0.000000,252.000000) scale(0.100000,-0.100000)"
fill="#FFFFFF" stroke="none">
<path d="M1941 2448 c-11 -24 -56 -90 -101 -148 -103 -131 -193 -258 -371
-522 -136 -202 -141 -208 -192 -229 -67 -29 -467 -231 -498 -253 l-23 -16 22
0 c12 0 62 22 111 50 125 69 411 211 411 204 0 -11 -273 -386 -348 -479 -190
-234 -406 -435 -535 -500 -165 -83 -286 -20 -316 162 -18 116 19 299 86 423
93 172 286 360 371 360 34 0 62 -34 62 -76 0 -55 -28 -151 -65 -226 -34 -71
-32 -93 5 -34 30 49 70 172 76 236 5 47 3 59 -16 83 -29 37 -86 37 -160 0
-112 -56 -290 -258 -350 -398 -57 -132 -78 -333 -45 -424 37 -106 108 -156
220 -155 129 0 252 81 480 316 153 157 250 278 446 553 l128 180 73 29 c144
56 421 156 424 153 2 -2 -1 -60 -5 -129 -17 -241 31 -575 98 -685 11 -18 39
-45 62 -60 38 -25 51 -28 126 -28 45 0 83 -1 83 -2 0 -18 -603 -544 -711 -619
l-38 -26 -44 25 c-60 36 -155 140 -195 214 -66 125 -90 301 -57 427 41 159
180 328 327 401 130 64 210 59 248 -15 57 -113 23 -287 -111 -569 -33 -68 -59
-126 -59 -128 0 -1 11 -3 24 -3 21 0 32 17 89 143 36 78 77 176 91 217 76 226
47 373 -80 410 -108 32 -297 -64 -422 -213 -61 -74 -120 -198 -134 -284 -15
-88 0 -230 32 -316 42 -113 157 -255 243 -302 l35 -19 -46 -29 c-26 -17 -83
-47 -127 -68 -44 -21 -72 -38 -62 -38 18 -1 170 73 221 107 28 20 28 20 85 -2
50 -19 75 -21 231 -20 140 0 195 5 277 22 332 71 631 251 732 441 40 76 47
130 27 209 -20 78 -46 131 -135 265 l-72 108 36 42 c235 273 345 449 345 553
0 84 -49 117 -143 95 -116 -27 -261 -151 -321 -274 -73 -148 -64 -271 27 -400
l20 -29 -153 -153 c-146 -147 -156 -154 -201 -160 -189 -26 -259 97 -298 522
-10 113 1 380 17 393 9 8 263 87 357 111 42 11 71 14 73 9 6 -16 32 -11 32 5
0 31 -100 12 -355 -69 -60 -19 -110 -34 -110 -33 -1 1 9 115 22 252 21 229 42
343 78 438 6 13 2 17 -14 17 -16 0 -27 -12 -40 -42z m-37 -125 c-8 -26 -23
-149 -34 -273 -11 -124 -23 -239 -26 -257 -4 -30 -9 -33 -112 -68 -59 -21
-167 -61 -239 -90 -73 -28 -133 -51 -133 -49 0 16 543 784 555 784 2 0 -3 -21
-11 -47z m1011 -493 c62 -69 -34 -262 -270 -544 -44 -52 -83 -95 -87 -95 -4
-1 -21 28 -39 64 -26 54 -31 76 -32 137 -1 141 69 277 190 373 109 85 198 109
238 65z m-312 -781 c115 -177 150 -284 128 -383 -39 -175 -282 -369 -584 -465
-147 -47 -262 -65 -422 -65 -114 0 -151 4 -200 20 l-59 20 64 49 c115 87 300
245 508 433 148 134 214 187 245 198 39 13 40 13 9 10 -32 -3 -26 4 105 136
76 76 140 138 143 138 3 0 31 -41 63 -91z"/>
</g>
</svg>
